<?xml version="1.0" standalone="no"?>
<!DOCTYPE svg PUBLIC "-//W3C//DTD SVG 20010904//EN"
 "http://www.w3.org/TR/2001/REC-SVG-20010904/DTD/svg10.dtd">
<svg version="1.0" xmlns="http://www.w3.org/2000/svg"
 width="260.000000pt" height="260.000000pt" viewBox="0 0 260.000000 260.000000"
 preserveAspectRatio="xMidYMid meet">
<metadata>
Created by potrace 1.14, written by Peter Selinger 2001-2017
</metadata>
<g transform="translate(0.000000,260.000000) scale(0.100000,-0.100000)"
fill="#000000" stroke="none">
<path d="M922 2565 c1 -19 -1 -37 -4 -41 -4 -3 -38 -6 -77 -5 l-70 0 -3 -42
-3 -42 -72 2 c-68 1 -73 0 -74 -20 -3 -61 -3 -62 -34 -63 -16 -1 -33 -2 -37
-3 -5 -1 -8 -19 -8 -41 0 -39 0 -39 -35 -36 -19 1 -35 -2 -36 -8 -1 -6 -2 -24
-3 -41 -1 -27 -5 -30 -38 -33 -37 -3 -38 -4 -38 -43 0 -39 0 -39 -39 -39 -37
0 -40 -2 -37 -27 4 -44 -9 -60 -43 -55 l-31 4 -1 -53 c-1 -30 0 -68 1 -85 1
-28 -2 -31 -27 -32 -15 0 -33 0 -40 -1 -8 -1 -12 -22 -11 -63 1 -101 2 -98
-37 -98 -19 0 -35 -3 -36 -7 0 -5 -2 -169 -2 -366 l-2 -358 22 -5 c12 -3 26
-3 32 0 19 12 24 -18 24 -131 0 -62 2 -113 6 -114 3 -1 20 -2 36 -3 33 -1 30
9 34 -138 1 -25 4 -27 36 -24 37 3 38 1 37 -56 -1 -26 2 -28 39 -28 39 0 39 0
39 -40 0 -40 0 -40 39 -40 l39 0 -3 -40 c-3 -42 3 -46 57 -41 13 2 17 -8 20
-41 3 -42 4 -43 38 -43 34 0 35 -2 35 -38 0 -20 5 -38 10 -39 6 -1 35 -2 65
-3 30 -2 61 -3 68 -4 7 -1 12 -16 12 -42 l0 -40 48 1 c26 1 78 1 115 1 59 -1
68 -3 66 -18 -4 -44 -13 -43 301 -43 314 0 305 -1 301 42 -2 19 15 21 161 18
l67 -1 3 43 3 43 67 -2 c73 -2 81 3 82 52 1 28 4 30 36 30 34 0 35 -1 38 -43
2 -26 8 -42 15 -41 7 1 24 1 38 0 22 -1 25 -5 25 -39 -1 -36 0 -37 37 -40 34
-3 37 -6 37 -33 l0 -29 116 0 115 0 -4 29 c-5 29 -3 30 36 33 l41 3 -1 105
c-1 58 -2 113 -2 124 -1 15 -7 17 -36 14 -20 -2 -35 1 -36 7 -1 5 -1 25 -1 42
-1 32 -2 33 -40 33 -37 0 -39 2 -38 28 4 48 1 52 -35 52 -21 0 -35 5 -36 13 0
6 -2 24 -3 40 -2 27 8 32 57 28 14 -2 17 6 18 41 2 126 1 123 34 124 17 1 33
2 36 3 3 1 6 52 6 114 -1 112 5 143 24 131 6 -3 20 -3 32 0 l22 5 0 324 0 325
-28 -2 c-47 -4 -50 4 -50 128 1 124 4 117 -52 120 -18 1 -20 9 -23 84 l-3 82
-38 0 c-38 0 -38 0 -36 40 l2 40 -39 0 c-38 0 -38 0 -38 40 0 40 0 40 -40 40
l-40 0 4 40 c4 37 2 40 -23 41 -14 1 -32 1 -38 0 -9 -1 -13 12 -13 39 0 28 -4
40 -15 41 -8 1 -25 2 -37 3 -17 1 -23 8 -25 26 0 14 -1 32 -2 41 -1 13 -14 16
-73 15 l-73 -1 -3 43 -3 43 -92 -1 c-142 -3 -136 -4 -135 28 0 15 0 33 -1 40
-1 9 -76 12 -341 12 l-341 0 3 -35z"/>
</g>
</svg>
