<?xml version="1.0" standalone="no"?>
<!DOCTYPE svg PUBLIC "-//W3C//DTD SVG 20010904//EN"
 "http://www.w3.org/TR/2001/REC-SVG-20010904/DTD/svg10.dtd">
<svg version="1.0" xmlns="http://www.w3.org/2000/svg"
 width="512.000000pt" height="512.000000pt" viewBox="0 0 512.000000 512.000000"
 preserveAspectRatio="xMidYMid meet">
<metadata>
Created by potrace 1.14, written by Peter Selinger 2001-2017
</metadata>
<g transform="translate(0.000000,512.000000) scale(0.100000,-0.100000)"
fill="#000000" stroke="none">
<path d="M1809 4970 c0 -3 0 -31 1 -63 1 -33 -4 -64 -10 -73 -10 -11 -43 -14
-151 -14 -78 0 -140 -4 -144 -10 -3 -5 -3 -32 1 -60 5 -40 10 -50 25 -50 11 0
21 10 25 24 3 14 13 27 21 31 14 5 14 7 -2 19 -27 20 -7 25 84 23 69 -2 85 -5
97 -21 22 -31 2 -40 -86 -37 -89 2 -107 -3 -89 -25 9 -12 44 -14 175 -13 l164
1 0 63 c0 44 -5 66 -16 75 -13 11 -16 10 -21 -8 -3 -12 -9 -22 -13 -22 -16 0
-41 -33 -36 -46 3 -8 -1 -14 -9 -14 -8 0 -15 -8 -15 -17 -1 -17 -1 -17 -11 -1
-7 12 -6 24 1 38 6 11 8 20 5 20 -3 0 2 11 11 25 9 14 20 22 25 19 5 -3 9 6 9
20 0 14 -4 26 -10 26 -22 0 -8 15 15 16 18 2 25 -3 25 -17 0 -23 13 -24 31 -3
11 13 10 17 -5 26 -13 8 -15 13 -5 24 9 12 66 14 321 14 290 0 310 -1 297 -17
-12 -15 -12 -16 4 -10 10 4 24 7 30 7 7 0 6 5 -3 10 -11 8 -3 10 30 8 34 -2
44 -7 42 -18 -2 -11 1 -10 12 3 10 13 26 17 60 16 25 -2 46 -6 46 -11 0 -4 12
-8 26 -8 14 0 23 4 19 10 -3 6 3 10 15 10 12 0 19 -4 16 -9 -3 -5 12 -9 34 -9
24 -1 40 4 40 11 0 8 3 7 9 -2 6 -9 11 -10 15 -2 9 13 156 12 156 -1 0 -5 -5
-6 -12 -2 -7 4 -8 3 -4 -4 11 -18 26 -14 26 5 0 30 12 5 14 -28 1 -18 7 -34
14 -37 8 -2 12 13 12 55 l0 58 -655 0 c-360 0 -655 -2 -656 -5z m61 -25 c0 -8
-4 -15 -10 -15 -5 0 -10 7 -10 15 0 8 5 15 10 15 6 0 10 -7 10 -15z m-80 -145
c0 -5 -7 -10 -16 -10 -8 0 -12 5 -9 10 3 6 10 10 16 10 5 0 9 -4 9 -10z m-240
-30 c0 -20 -5 -30 -15 -30 -17 0 -18 4 -9 38 9 32 24 27 24 -8z m341 7 c-1 -4
-1 -16 -1 -27 0 -11 -7 -20 -15 -20 -16 0 -19 17 -9 45 6 15 26 17 25 2z"/>
<path d="M2965 4920 c3 -5 11 -10 16 -10 6 0 7 5 4 10 -3 6 -11 10 -16 10 -6
0 -7 -4 -4 -10z"/>
<path d="M2123 4892 c-18 -9 -33 -19 -33 -24 0 -4 15 -8 33 -8 17 -1 80 -3
139 -5 97 -4 109 -2 118 14 8 16 4 21 -21 31 -16 7 -32 10 -36 6 -3 -3 0 -6 8
-6 21 -1 -33 -29 -56 -30 -12 0 -26 5 -32 11 -5 5 -29 10 -51 11 -23 0 -39 4
-36 9 3 5 4 8 2 8 -2 -1 -18 -9 -35 -17z"/>
<path d="M2640 4896 c0 -15 -3 -17 -11 -9 -12 12 -69 -2 -69 -17 0 -11 57 -23
70 -15 6 4 27 7 46 7 33 0 50 17 19 19 -32 3 -36 4 -45 19 -8 12 -10 12 -10
-4z"/>
<path d="M2477 4893 c-10 -10 -8 -23 4 -23 5 0 8 4 5 9 -4 5 0 12 6 14 7 3 8
6 2 6 -6 1 -14 -2 -17 -6z"/>
<path d="M1950 4883 c-16 -6 -30 -23 -30 -37 0 -5 7 -3 14 4 10 7 33 9 68 5
46 -5 92 6 78 18 -9 8 -115 15 -130 10z"/>
<path d="M2522 4869 c2 -6 8 -10 13 -10 5 0 11 4 13 10 2 6 -4 11 -13 11 -9 0
-15 -5 -13 -11z"/>
<path d="M2838 4808 c4 -121 2 -118 76 -118 l64 0 4 68 c4 78 -4 137 -15 110
-9 -24 -102 -26 -111 -3 -13 35 -21 10 -18 -57z"/>
<path d="M3138 4758 l-3 -73 -72 -3 -73 -3 0 -74 0 -75 -75 0 c-84 0 -75 -9
-81 85 -1 17 -2 38 -3 48 -1 14 -11 17 -71 17 l-69 0 -3 -72 -3 -73 -70 -5
-70 -5 -3 -71 c-3 -71 -3 -72 -34 -78 -17 -3 -48 -6 -69 -6 -49 0 -62 22 -57
99 l3 56 -70 0 -70 0 -3 -70 c-2 -38 -8 -72 -14 -76 -6 -4 -34 -7 -62 -7 -28
0 -56 -1 -63 -1 -8 -1 -13 -26 -15 -73 l-3 -73 -64 -3 c-37 -2 -69 2 -75 8 -6
6 -11 39 -11 73 l0 62 -65 6 c-36 3 -68 4 -73 2 -4 -3 -7 -67 -6 -143 0 -77
-2 -144 -6 -150 -3 -5 -35 -10 -69 -10 l-63 0 -5 -71 c-3 -43 -11 -74 -19 -79
-7 -5 -36 -8 -65 -7 -29 1 -56 -2 -60 -6 -4 -4 -10 -37 -13 -75 l-6 -67 -68
-3 c-66 -3 -67 -3 -67 -31 0 -16 -2 -41 -5 -57 -9 -46 6 -58 69 -57 72 2 86
-11 86 -82 0 -68 -14 -82 -82 -83 -75 -2 -81 4 -82 85 l-1 68 -70 5 -70 5 -9
73 -9 72 -139 0 -138 0 0 -70 0 -70 59 0 c89 0 91 -1 91 -80 0 -76 3 -79 85
-75 57 3 65 -7 65 -86 l0 -68 73 -3 72 -3 3 -63 c4 -84 -4 -92 -89 -92 l-68 0
-3 -72 -3 -73 -75 0 -75 0 -3 67 -3 66 -57 4 c-31 2 -60 3 -64 1 -5 -3 -8 -35
-8 -73 0 -79 -2 -80 -91 -80 l-59 0 0 -59 c0 -90 -1 -91 -82 -91 l-69 0 3 -72
3 -73 63 1 c34 0 98 1 142 2 l79 2 3 73 3 72 64 3 c37 2 69 -2 75 -8 6 -6 11
-39 11 -73 l0 -62 65 -3 c35 -2 70 -8 77 -14 8 -7 13 -35 13 -79 l0 -69 64 0
c41 0 68 -5 73 -12 4 -7 9 -105 9 -218 1 -113 2 -211 3 -217 1 -10 37 -13 146
-13 108 0 145 -3 147 -12 1 -7 2 -26 3 -43 1 -16 2 -44 3 -62 l2 -32 68 -3
c67 -3 67 -3 70 -33 1 -16 5 -49 8 -72 l5 -43 54 0 c84 0 85 -1 85 -86 0 -83
7 -77 -95 -78 l-50 -1 -3 -52 c-5 -79 6 -91 81 -95 l62 -3 3 -77 3 -78 -65 0
c-77 0 -88 -12 -85 -90 2 -27 0 -53 -4 -56 -4 -4 -33 -8 -66 -10 -33 -1 -64
-5 -70 -8 -6 -4 -8 -27 -4 -55 3 -29 1 -57 -6 -70 -11 -20 -19 -22 -79 -19
l-67 3 -3 68 c-3 62 -5 69 -28 77 -14 6 -43 10 -64 10 -47 0 -57 -14 -58 -88
0 -28 -4 -57 -7 -62 -3 -6 -35 -10 -70 -10 -62 0 -64 -1 -70 -30 -4 -16 -6
-44 -5 -62 3 -59 5 -58 -75 -58 -84 0 -78 -8 -75 93 l1 57 -145 0 -146 0 0
-70 0 -69 73 -3 72 -3 5 -75 5 -75 60 0 c33 0 66 -4 73 -8 8 -5 12 -33 12 -78
l0 -69 70 0 69 0 3 -77 3 -78 147 -3 147 -3 3 -72 3 -72 220 -5 220 -5 3 -72
c2 -49 7 -73 15 -73 10 -1 1155 0 1179 0 4 0 8 33 10 72 l3 73 220 5 220 5 3
72 3 72 147 3 147 3 5 75 5 75 61 3 c41 2 64 -1 72 -10 6 -8 12 -43 14 -78 l3
-65 70 -5 70 -5 3 -72 3 -73 69 0 c79 0 81 -2 77 -88 -2 -29 0 -55 5 -58 12
-8 424 -8 436 0 7 4 9 23 5 51 -3 24 -3 55 1 69 6 24 11 25 77 28 l71 3 -1
219 c0 121 -4 223 -8 227 -4 4 -37 9 -73 11 l-65 3 -1 60 c-1 33 -2 66 -3 73
-1 8 -21 12 -65 12 -81 0 -91 10 -82 84 6 48 5 56 -12 65 -11 6 -40 9 -63 7
-67 -6 -74 2 -74 81 l0 68 74 5 74 5 -2 142 c-2 103 1 143 10 149 7 4 38 6 70
5 35 -1 60 3 64 10 4 6 8 109 9 228 l1 216 65 3 c36 2 69 7 73 11 4 4 8 280 8
612 l-1 604 -67 3 c-38 2 -71 8 -75 15 -5 7 -8 104 -8 217 1 113 1 211 1 218
-1 8 -22 12 -70 12 -58 0 -71 3 -75 18 -3 10 -5 74 -4 142 1 69 -1 131 -5 138
-5 7 -32 12 -72 12 -72 0 -81 10 -70 74 13 66 2 76 -75 76 -77 0 -77 0 -74 80
2 73 -7 83 -67 75 -29 -4 -56 -2 -69 5 -19 10 -21 17 -15 60 11 82 5 90 -76
90 -48 0 -69 4 -70 13 -1 6 -2 39 -3 72 l-1 60 -65 3 c-36 2 -69 7 -74 12 -6
6 -10 38 -10 72 l-1 63 -130 2 c-185 4 -175 -1 -175 83 l0 70 -220 0 -219 0
-3 -72z m441 -1002 c7 -9 11 -40 9 -78 l-3 -63 -60 -3 c-32 -2 -65 -8 -72 -14
-8 -6 -13 -33 -13 -69 0 -32 -5 -61 -11 -65 -6 -4 -39 -7 -73 -8 l-61 -2 -3
-64 c-2 -35 -8 -70 -14 -77 -13 -17 -120 -17 -136 -1 -13 13 -16 67 -6 117 l7
31 68 0 69 0 0 68 c0 40 5 73 12 80 7 7 39 12 75 12 l63 0 0 59 c0 88 2 91 75
91 42 0 66 -5 74 -14z m899 -149 c9 -6 12 -63 12 -228 l0 -219 63 0 c36 0 68
-5 75 -12 7 -7 12 -39 12 -74 0 -65 -13 -87 -47 -84 -10 1 -37 2 -60 1 l-43
-1 0 -52 c0 -95 -3 -98 -81 -98 l-68 0 -3 -72 -3 -73 -60 -3 c-74 -3 -85 -16
-85 -93 l0 -58 73 -3 72 -3 0 -75 0 -75 -70 -5 -70 -5 -3 -67 c-3 -77 -14 -88
-78 -86 -69 2 -75 10 -72 91 l3 72 68 3 67 3 0 69 0 70 -70 0 -70 0 0 -70 0
-71 -72 3 -73 3 0 70 0 70 68 3 67 3 0 74 0 75 -82 2 c-115 3 -181 6 -194 7
-17 2 -29 268 -13 287 8 9 32 14 75 14 l64 0 0 143 c0 98 4 147 12 155 7 7 39
12 75 12 l62 0 3 73 3 72 148 3 147 3 0 70 c0 63 2 70 23 78 26 10 107 9 125
-2z m-1650 -374 l3 -73 -69 0 c-64 0 -70 2 -76 23 -9 33 -7 72 4 102 9 25 13
26 72 23 l63 -3 3 -72z m442 -156 c0 -70 17 -97 62 -97 18 0 28 -5 28 -15 0
-8 5 -15 10 -15 6 0 10 7 10 15 0 8 9 15 20 15 18 0 20 -7 20 -64 0 -36 5 -68
10 -71 6 -3 10 -37 10 -76 l0 -69 64 0 c40 0 68 -5 74 -13 6 -7 12 -42 14 -77
l3 -65 65 0 65 -1 7 -89 c11 -142 12 -515 2 -525 -5 -5 -38 -10 -74 -12 l-65
-3 0 -65 c0 -36 -4 -70 -8 -77 -5 -7 -30 -11 -65 -10 -78 2 -83 -3 -76 -71 8
-72 0 -80 -86 -84 l-65 -3 2 -54 c3 -95 13 -91 -225 -90 -114 1 -247 4 -297 8
l-90 6 -3 68 -3 67 -74 0 -75 0 0 74 0 74 -78 3 c-58 3 -83 9 -96 22 -19 19
-42 22 -51 7 -3 -5 3 -10 14 -10 11 0 22 -9 26 -21 4 -11 13 -18 20 -15 10 3
13 -10 13 -55 l0 -59 -64 0 -64 0 0 138 c0 172 -2 176 -89 170 l-62 -4 3 217
3 217 57 -2 c48 -3 60 0 77 18 19 20 20 31 16 141 -3 66 -8 128 -11 138 -6 19
-4 19 77 17 39 -1 59 3 68 14 10 12 32 16 78 16 46 0 62 3 57 12 -4 6 -6 28
-6 49 1 21 -3 41 -9 45 -15 9 -40 -18 -42 -44 0 -11 -5 -18 -9 -16 -5 3 -11
-2 -14 -10 -3 -9 -14 -16 -24 -16 -14 0 -19 10 -22 45 -5 64 -3 66 58 59 45
-6 58 -4 75 12 17 16 36 18 154 16 128 -1 135 0 135 18 0 11 -4 20 -9 20 -6 0
-16 12 -23 28 -16 33 -55 40 -100 18 -20 -10 -35 -13 -42 -7 -7 6 -17 6 -26 1
-12 -7 -12 -12 -2 -22 16 -16 15 -28 -3 -28 -8 0 -15 5 -15 10 0 6 -7 10 -15
10 -8 0 -15 -4 -15 -10 0 -5 -4 -10 -10 -10 -5 0 -10 22 -10 50 l0 49 138 -5
c130 -6 138 -5 156 15 16 17 18 30 13 78 l-6 58 209 1 210 1 0 -60z m-1952
-85 c22 -2 23 -5 20 -69 l-3 -68 -70 0 -70 0 -3 58 c-2 32 2 64 7 71 10 11 44
14 119 8z m1442 -66 c0 -8 6 -16 13 -19 21 -7 4 -15 -43 -18 -52 -5 -63 16
-20 38 33 17 50 16 50 -1z m-100 -25 c0 -6 -4 -13 -10 -16 -5 -3 -10 1 -10 9
0 9 5 16 10 16 6 0 10 -4 10 -9z m1525 -901 l0 -75 -72 -3 -72 -3 -3 -72 -3
-72 -70 0 -70 0 0 70 0 70 73 3 72 3 0 73 c0 40 3 76 7 80 4 4 37 6 73 4 l65
-3 0 -75z m-1722 -398 c-7 -4 -9 -13 -4 -21 7 -10 12 -8 24 9 28 40 47 19 47
-50 l0 -60 -65 0 -65 0 0 65 0 65 38 0 c21 0 32 -4 25 -8z m1407 -69 c1 -73
16 -108 41 -92 8 5 35 9 62 9 l47 0 0 -134 0 -134 -35 -4 c-45 -5 -58 3 -53
33 2 16 -2 24 -12 24 -17 0 -19 -12 -26 -143 l-5 -93 64 2 c35 1 68 -1 74 -4
13 -8 16 -116 4 -135 -5 -9 -27 -12 -72 -10 l-64 3 -5 70 -5 70 -90 -1 c-139
-2 -180 -7 -180 -23 0 -8 15 -15 43 -17 27 -3 41 0 37 6 -3 5 -2 10 2 10 5 0
14 -22 19 -49 l10 -50 -70 -6 c-39 -3 -105 -7 -146 -8 l-75 -2 1 70 c1 39 7
101 13 140 10 64 9 71 -9 90 -15 16 -20 35 -20 73 0 29 -4 52 -9 52 -17 0 -20
-15 -11 -55 5 -22 7 -41 6 -43 -2 -1 -27 -5 -55 -6 l-51 -4 3 62 3 61 59 2
c33 1 96 6 140 10 l80 8 5 70 5 70 80 5 80 5 -2 68 -2 67 59 0 60 0 0 -67z
m315 -703 c4 -11 3 -45 0 -75 l-7 -55 -69 0 -69 0 0 75 0 75 69 0 c61 0 70 -3
76 -20z"/>
<path d="M4347 3144 c-4 -4 -7 -38 -7 -76 l0 -69 68 3 67 3 0 70 0 70 -60 3
c-34 2 -64 0 -68 -4z"/>
<path d="M4190 2920 l0 -70 70 0 70 0 0 70 0 70 -70 0 -70 0 0 -70z"/>
<path d="M4042 2773 l3 -68 68 -3 68 -3 -3 68 -3 68 -68 3 -68 3 3 -68z"/>
<path d="M3154 3105 c-4 -8 -1 -22 6 -30 7 -9 10 -18 7 -21 -3 -3 -40 -8 -82
-11 -66 -5 -79 -4 -87 11 -6 11 -16 15 -29 11 -12 -4 -19 -2 -19 6 0 8 -6 6
-18 -4 -10 -10 -21 -14 -25 -11 -3 3 -10 -3 -16 -15 -6 -11 -8 -21 -4 -24 7
-3 293 -1 348 3 19 1 19 2 -1 10 -28 11 -35 22 -24 40 12 20 -7 50 -31 50 -11
0 -22 -7 -25 -15z"/>
<path d="M2885 3100 c-3 -5 1 -10 9 -10 9 0 16 5 16 10 0 6 -4 10 -9 10 -6 0
-13 -4 -16 -10z"/>
<path d="M2999 3094 c-11 -14 -9 -15 16 -12 16 1 30 9 33 16 6 18 -33 15 -49
-4z"/>
<path d="M2807 2946 c-4 -10 -5 -21 -2 -24 9 -9 17 6 13 25 -3 17 -4 17 -11
-1z"/>
<path d="M3310 2937 c0 -8 -3 -29 -6 -46 l-6 -31 51 0 c46 0 51 2 50 23 0 21
-1 21 -9 2 -9 -20 -9 -20 -15 2 -4 11 -16 23 -26 26 -11 3 -18 11 -17 17 2 7
-3 15 -9 17 -7 3 -13 -2 -13 -10z"/>
<path d="M2338 2633 c-2 -16 -8 -27 -15 -25 -18 3 -16 -15 2 -22 27 -10 17
-55 -19 -91 -27 -27 -32 -36 -21 -42 7 -5 13 -17 12 -28 -2 -16 5 -21 36 -23
20 -2 37 0 37 5 6 205 4 248 -12 251 -12 2 -17 -5 -20 -25z m2 -183 c0 -19
-11 -26 -23 -14 -8 8 3 34 14 34 5 0 9 -9 9 -20z"/>
<path d="M2290 2530 c0 -5 5 -10 10 -10 6 0 10 5 10 10 0 6 -4 10 -10 10 -5 0
-10 -4 -10 -10z"/>
<path d="M2138 2333 c-3 -10 -2 -27 2 -38 6 -18 7 -18 12 3 4 12 17 26 30 31
16 7 18 10 6 10 -9 1 -23 4 -31 7 -9 3 -16 -2 -19 -13z"/>
<path d="M2210 2331 c0 -11 -5 -23 -11 -26 -6 -4 -7 -14 -4 -24 4 -9 9 -27 12
-41 8 -46 13 -33 13 38 0 40 -2 72 -5 72 -3 0 -5 -9 -5 -19z"/>
<path d="M2187 2203 c-11 -21 -17 -64 -8 -58 6 3 8 0 6 -8 -3 -7 -1 -24 4 -38
8 -19 10 -11 10 44 1 63 -2 77 -12 60z"/>
<path d="M2138 2190 c-5 -17 3 -100 11 -100 9 0 8 96 0 105 -4 3 -9 1 -11 -5z"/>
<path d="M2152 2071 c-7 -4 -12 -12 -11 -17 2 -5 -1 -19 -5 -32 -5 -14 -3 -29
5 -38 10 -13 14 -13 28 0 19 17 37 10 44 -19 2 -11 5 9 4 45 0 57 -1 60 -7 25
-4 -22 -8 -35 -9 -29 0 6 -12 10 -26 9 -14 -2 -25 1 -25 6 0 8 21 13 42 10 8
-1 5 20 -5 37 -9 14 -17 15 -35 3z"/>
<path d="M2290 1898 c0 -4 7 -8 15 -8 20 0 19 -27 -2 -38 -14 -8 -10 -13 25
-30 49 -24 57 -17 47 43 -6 44 -6 44 -46 42 -21 -1 -39 -5 -39 -9z"/>
<path d="M2291 1726 c-1 -23 2 -26 13 -17 11 9 15 7 19 -9 7 -28 27 -25 27 5
0 20 -5 25 -24 25 -13 0 -27 6 -29 13 -3 6 -6 -1 -6 -17z"/>
<path d="M2275 1660 c-3 -5 3 -10 15 -10 12 0 18 5 15 10 -3 6 -10 10 -15 10
-5 0 -12 -4 -15 -10z"/>
<path d="M2432 1538 c3 -24 34 -36 50 -20 7 7 0 16 -22 27 -31 16 -32 16 -28
-7z"/>
<path d="M3837 1563 c-11 -10 -8 -43 3 -43 6 0 10 11 10 25 0 26 -2 29 -13 18z"/>
<path d="M3792 1511 c4 -13 18 -16 19 -4 0 4 -5 9 -11 12 -7 2 -11 -2 -8 -8z"/>
<path d="M3759 1443 c0 -10 -2 -39 -4 -65 l-4 -48 68 0 c65 0 95 -12 90 -36
-4 -26 2 -34 19 -25 9 5 30 7 46 4 28 -6 29 -5 22 23 -4 16 -12 31 -17 32 -5
2 -9 11 -9 19 0 14 -3 14 -20 -2 -21 -19 -55 -13 -47 8 3 7 -4 23 -14 36 -11
13 -19 18 -19 13 0 -6 5 -14 10 -17 17 -11 11 -28 -7 -20 -10 4 -24 8 -32 8
-8 0 -16 8 -18 18 -3 11 -11 15 -24 12 -14 -4 -19 0 -19 16 0 11 5 21 10 21 6
0 10 5 10 10 0 18 -40 11 -41 -7z"/>
<path d="M3830 1425 c7 -9 15 -13 17 -11 7 7 -7 26 -19 26 -6 0 -6 -6 2 -15z"/>
<path d="M3344 1249 c-3 -6 -1 -16 5 -22 8 -8 11 -5 11 11 0 24 -5 28 -16 11z"/>
<path d="M3965 1240 c-8 -13 15 -24 27 -12 6 6 4 11 -6 15 -8 3 -18 2 -21 -3z"/>
<path d="M3485 1122 c-4 -11 1 -13 25 -9 27 6 30 4 30 -17 0 -14 3 -31 6 -40
11 -28 24 -6 24 39 l0 44 -40 -2 c-24 -1 -42 -7 -45 -15z"/>
<path d="M3614 919 c-10 -17 13 -36 27 -22 12 12 4 33 -11 33 -5 0 -12 -5 -16
-11z"/>
<path d="M1209 4668 c-1 -5 -2 -73 0 -101 0 -16 5 -26 9 -23 5 3 63 6 130 7
131 1 142 6 120 55 -9 20 -9 27 1 34 35 21 -5 30 -130 30 -71 0 -129 -1 -130
-2z m204 -42 c23 -18 22 -46 -3 -46 -12 0 -20 7 -20 18 -1 16 -1 16 -11 -1
-14 -24 -119 -22 -120 2 0 12 -3 10 -8 -4 -8 -19 -8 -19 -15 2 -4 13 -4 27 -1
33 9 15 157 12 178 -4z"/>
<path d="M1059 4515 c0 0 -1 -27 -2 -60 l-1 -60 54 0 55 0 6 55 c3 30 4 58 2
63 -3 5 -106 7 -114 2z m85 -54 c-9 -34 -13 -41 -25 -41 -6 0 -7 10 -4 23 6
18 5 20 -6 10 -20 -20 -28 -15 -24 15 2 15 4 27 4 28 1 0 14 -1 31 -4 27 -4
29 -7 24 -31z"/>
<path d="M955 4363 l-50 -4 0 -57 0 -57 56 -3 c40 -2 58 1 61 10 6 19 -3 118
-10 116 -4 -1 -29 -3 -57 -5z m0 -53 c3 -11 13 -20 21 -20 8 0 14 -4 14 -9 0
-5 -13 -9 -30 -9 -26 1 -30 5 -30 30 0 32 16 38 25 8z"/>
<path d="M1495 4171 c-11 -84 -5 -92 73 -89 l67 3 0 65 0 65 -67 3 -66 3 -7
-50z"/>
<path d="M759 4208 c0 -2 -1 -28 -2 -58 l-2 -55 60 -3 60 -3 -2 58 -1 58 -56
3 c-31 2 -56 2 -57 0z m71 -49 c0 -27 -2 -30 -15 -19 -11 9 -12 17 -4 31 14
27 19 24 19 -12z m-30 -20 c0 -5 -4 -9 -10 -9 -5 0 -10 7 -10 16 0 8 5 12 10
9 6 -3 10 -10 10 -16z"/>
<path d="M1347 4063 c-10 -9 -8 -115 2 -131 5 -9 27 -12 72 -10 l64 3 3 64 c2
45 -1 67 -10 72 -16 10 -122 12 -131 2z"/>
<path d="M610 3995 c0 -58 2 -65 20 -65 11 0 20 5 20 10 0 6 -4 10 -10 10 -5
0 -10 9 -10 21 0 18 3 17 26 -10 40 -48 61 -42 66 22 6 74 4 77 -58 77 l-54 0
0 -65z m74 36 c3 -5 -8 -11 -24 -13 -29 -4 -37 1 -23 15 9 10 41 9 47 -2z m6
-37 c0 -14 -3 -15 -17 -3 -10 7 -20 15 -22 16 -2 2 5 3 17 3 14 0 22 -6 22
-16z"/>
<path d="M1230 3910 l-35 -5 0 -65 0 -65 64 -3 c40 -2 67 1 71 8 6 10 7 28 1
106 -1 24 -38 33 -101 24z"/>
<path d="M747 3903 c-3 -7 -1 -95 2 -125 1 -5 33 -8 71 -8 l70 0 0 70 0 70
-69 0 c-39 0 -72 -3 -74 -7z"/>
<path d="M460 3762 l0 -138 27 2 c30 1 45 24 16 24 -18 0 -20 8 -20 110 l0
110 33 0 c34 0 52 -14 34 -25 -6 -4 -17 -2 -24 4 -19 16 -26 3 -14 -30 5 -16
7 -36 4 -45 -3 -8 2 -27 12 -42 16 -25 16 -26 -2 -19 -16 6 -17 4 -12 -19 8
-30 35 -74 46 -74 11 0 20 211 9 231 -6 11 -6 20 1 24 25 15 5 25 -50 25 l-60
0 0 -138z"/>
<path d="M308 3447 l-3 -152 -71 -3 -71 -3 -6 -670 c-4 -369 -4 -675 -1 -680
3 -5 32 -9 65 -9 l59 0 0 108 c0 60 3 163 7 230 l6 121 71 3 71 3 3 68 3 67
-63 0 c-95 0 -108 6 -108 47 0 30 -3 34 -22 31 -12 -2 -24 -10 -26 -18 -3 -8
-1 -12 3 -8 15 14 44 -50 51 -110 6 -55 4 -61 -15 -71 -11 -7 -33 -10 -48 -8
l-28 4 -2 436 c-1 247 2 437 7 437 5 0 15 -7 24 -15 8 -8 20 -15 26 -15 12 0
30 -41 23 -53 -3 -5 -10 -4 -16 2 -13 13 -47 15 -47 2 0 -5 7 -14 15 -21 11
-9 14 -22 9 -48 -5 -23 -3 -33 4 -29 12 8 22 -15 22 -49 0 -17 -6 -24 -20 -24
-11 0 -20 -7 -20 -16 0 -11 6 -14 20 -9 11 4 20 2 20 -4 0 -6 -6 -11 -12 -11
-19 0 -41 -51 -28 -64 14 -14 13 -39 -2 -30 -8 5 -9 2 -4 -12 18 -44 20 -57 5
-49 -12 7 -12 6 -1 -8 10 -11 12 -33 8 -71 -5 -45 -3 -56 8 -56 8 0 19 -8 25
-17 5 -10 12 -16 14 -13 3 3 7 116 9 252 3 136 7 251 11 255 8 7 93 6 120 -3
16 -5 17 7 18 148 1 132 1 257 -1 280 0 4 -25 7 -55 7 l-54 0 -3 -152z m91 63
c0 -33 -4 -60 -10 -60 -5 0 -9 5 -9 11 0 14 -25 39 -39 39 -6 0 -11 9 -11 19
0 36 12 51 40 51 28 0 28 -1 29 -60z m-47 -107 c2 -42 8 -68 16 -71 6 -2 13 5
13 15 2 22 18 -52 18 -84 1 -19 -4 -23 -29 -23 -16 0 -30 1 -31 3 0 1 -3 53
-5 115 -3 72 -2 112 5 112 6 0 11 -30 13 -67z m40 -15 c-9 -9 -12 -4 -11 23 0
32 1 33 11 11 8 -17 8 -26 0 -34z m-102 -129 c0 -5 -9 -9 -20 -9 -22 0 -27 16
-7 23 15 5 27 -1 27 -14z m82 -41 c30 3 36 -9 14 -27 -10 -8 -16 -9 -21 -1 -8
13 -65 13 -65 0 0 -5 -4 -10 -8 -10 -5 0 -9 7 -9 15 0 8 9 15 19 15 10 0 18 5
18 11 0 5 5 7 12 3 7 -5 25 -7 40 -6z m-135 -340 c-3 -7 -5 -2 -5 12 0 14 2
19 5 13 2 -7 2 -19 0 -25z m0 -65 c-3 -10 -5 -2 -5 17 0 19 2 27 5 18 2 -10 2
-26 0 -35z m0 -55 c-3 -7 -5 -2 -5 12 0 14 2 19 5 13 2 -7 2 -19 0 -25z"/>
<path d="M366 3301 c-4 -7 -5 -15 -2 -18 9 -9 19 4 14 18 -4 11 -6 11 -12 0z"/>
<path d="M900 3380 l0 -70 65 0 66 0 -3 68 -3 67 -62 3 -63 3 0 -71z"/>
<path d="M752 3233 l3 -68 63 -3 62 -3 0 71 0 70 -65 0 -66 0 3 -67z"/>
<path d="M1050 3230 l0 -70 65 0 c61 0 65 1 71 26 4 14 3 44 -2 67 l-9 42 -63
3 -62 3 0 -71z"/>
<path d="M604 3137 c-3 -8 -4 -41 -2 -73 l3 -59 50 -3 c70 -3 79 5 76 74 -1
32 -3 59 -4 60 -1 1 -28 5 -60 8 -45 6 -58 4 -63 -7z"/>
<path d="M452 2923 l3 -68 62 -3 62 -3 6 34 c4 18 5 49 3 68 l-3 34 -68 3 -68
3 3 -68z"/>
<path d="M457 2684 c-4 -4 -7 -38 -7 -76 l0 -69 68 3 67 3 0 70 0 70 -60 3
c-34 2 -64 0 -68 -4z"/>
<path d="M206 2502 c-2 -4 7 -17 20 -29 25 -23 27 -21 18 15 -6 21 -28 30 -38
14z"/>
<path d="M302 1698 l3 -223 65 0 65 0 3 125 c1 69 -1 168 -5 220 l-8 95 -63 3
-62 3 2 -223z"/>
<path d="M1195 1897 c-4 -13 -5 -43 -3 -67 3 -41 6 -45 35 -51 17 -3 49 -3 70
0 l38 6 -1 51 c-1 80 -5 84 -73 84 -55 0 -61 -2 -66 -23z"/>
<path d="M1507 1913 c-10 -17 -18 -93 -12 -113 6 -17 15 -20 70 -20 73 0 79 7
73 91 l-3 44 -62 3 c-34 2 -63 -1 -66 -5z"/>
<path d="M1345 1747 c-4 -13 -5 -46 -3 -73 l3 -49 70 0 70 0 0 70 0 70 -67 3
c-64 3 -68 2 -73 -21z"/>
<path d="M1644 1756 c-7 -18 1 -114 10 -123 3 -3 34 -6 68 -7 l63 -1 1 60 c0
33 -4 66 -9 73 -14 18 -126 16 -133 -2z"/>
<path d="M898 1553 c-6 -84 -6 -84 71 -81 l66 3 3 44 c6 84 0 91 -72 91 l-64
0 -4 -57z"/>
<path d="M1196 1602 c-3 -5 -3 -33 -1 -63 2 -30 4 -57 5 -61 0 -5 29 -8 65 -8
l65 0 0 48 c0 26 3 57 6 70 6 21 4 22 -64 22 -39 0 -73 -4 -76 -8z"/>
<path d="M1497 1604 c-9 -9 -9 -81 -1 -112 6 -21 11 -23 73 -20 l66 3 0 65 0
65 -65 3 c-36 2 -69 0 -73 -4z"/>
<path d="M452 1313 l3 -147 65 -1 65 0 3 148 3 147 -71 0 -71 0 3 -147z"/>
<path d="M746 1451 c-3 -5 -4 -38 -3 -73 l4 -63 69 0 69 0 3 73 3 72 -70 0
c-38 0 -72 -4 -75 -9z"/>
<path d="M1050 1458 c0 -2 -2 -33 -3 -70 l-3 -66 51 -4 c94 -7 96 -5 93 71
l-3 66 -67 3 c-38 2 -68 2 -68 0z"/>
<path d="M1344 1447 c-3 -8 -4 -39 -2 -68 l3 -54 60 -6 c86 -8 86 -7 83 70
l-3 66 -68 3 c-51 2 -69 -1 -73 -11z"/>
<path d="M1646 1425 c-4 -19 -4 -50 -1 -69 7 -33 9 -34 58 -38 29 -2 57 -2 64
0 13 4 27 75 21 113 -3 22 -8 24 -69 27 l-67 3 -6 -36z"/>
<path d="M898 1245 c-1 -36 -1 -70 0 -75 5 -14 116 -12 130 2 7 7 12 35 12 63
0 28 -5 56 -12 63 -7 7 -38 12 -69 12 l-57 0 -4 -65z"/>
<path d="M1205 1301 c-5 -9 -10 -96 -6 -128 1 -9 21 -13 66 -13 l66 0 -3 73
-3 72 -57 3 c-31 1 -59 -2 -63 -7z"/>
<path d="M1500 1291 c-12 -23 -13 -101 -1 -119 5 -9 27 -12 72 -10 l64 3 2 50
c4 91 1 95 -67 95 -48 0 -61 -4 -70 -19z"/>
<path d="M604 1151 c-2 -2 -4 -35 -4 -73 l0 -68 70 0 70 0 0 64 c0 41 -5 68
-12 73 -13 8 -116 11 -124 4z"/>
<path d="M1070 1153 c-24 -4 -25 -7 -25 -71 l1 -67 67 -3 c64 -3 67 -2 73 23
6 24 0 102 -8 110 -6 7 -81 12 -108 8z"/>
</g>
</svg>
